<svg height="64" viewBox="0 0 64 64" width="64" xmlns="http://www.w3.org/2000/svg" xmlns:xlink="http://www.w3.org/1999/xlink"><defs><path id="a" d="m19 0 17.4316906 45.6544278c1.9707229 5.161417-.9065272 9.3455722-6.4383768 9.3455722h-21.98662759c-5.52654019 0-8.41103678-4.1790819-6.43837684-9.3455722z"/><mask id="b" fill="#fff"><use fill="#fff" fill-rule="evenodd" xlink:href="#a"/></mask></defs><g fill="none" fill-rule="evenodd"><g transform="translate(13 7)"><use fill="#fcc24c" transform="matrix(1 0 0 -1 0 55)" xlink:href="#a"/><g fill="#e43535"><circle cx="22" cy="17" mask="url(#b)" r="6"/><circle cx="22.5" cy="37.5" mask="url(#b)" r="4.5"/><circle cx="7" cy="25" mask="url(#b)" r="6"/></g></g><g stroke="#ed9111" stroke-linecap="round"><path d="m49.3553391 13.3223305c-4.5241102-4.52411019-10.7741102-7.3223305-17.6776696-7.3223305-6.9035593 0-13.1535593 2.79822031-17.6776695 7.3223305" stroke-width="8"/><path d="m29.9082472 14.986472s1.648562 3.6387528-4.8288436 5.0892243m4.46787 14.518643s2.7403813-3.1520382 5.7604881-.6979596m-6.60895 7.0678082s-1.5410051 5.9500669.1501154 6.9107286m9.721138-32.5061916s4.6814364-.0491358 5.497786 2.2308398m-22.3385762-.4611795s-1.7862968-1.4493108-2.0370051 2.5469335" stroke-width="2"/></g></g></svg>